<svg xmlns="http://www.w3.org/2000/svg" width="100%" height="100%" viewBox="0 0 256 256" version="1.1" xml:space="preserve" style="fill-rule:evenodd;clip-rule:evenodd;stroke-linejoin:round;stroke-miterlimit:2;">
    <g transform="matrix(1,0,0,1.125,0,56)">
        <path id="batt_outer" d="M256,16C256,7.169 247.934,0 238,0L18,0C8.066,0 0,7.169 0,16L0,112C0,120.831 8.066,128 18,128L238,128C247.934,128 256,120.831 256,112L256,16Z" style="fill:rgb(255,41,0);fill-opacity:0.35;" />
        <clipPath id="_clip1">
            <path d="M256,16C256,7.169 247.934,0 238,0L18,0C8.066,0 0,7.169 0,16L0,112C0,120.831 8.066,128 18,128L238,128C247.934,128 256,120.831 256,112L256,16Z" />
        </clipPath>
        <g clip-path="url(#_clip1)">
            <g transform="matrix(0.921875,0,0,0.861111,10,8.88889)">
                <rect id="batt_inner" x="0" y="0" width="51.2" height="128" style="fill:rgb(255,41,0);" />
            </g>
        </g>
        <path d="M256,16C256,7.169 247.934,0 238,0L18,0C8.066,0 0,7.169 0,16L0,112C0,120.831 8.066,128 18,128L238,128C247.934,128 256,120.831 256,112L256,16ZM246,16L246,112C246,115.925 242.415,119.111 238,119.111C238,119.111 18,119.111 18,119.111C13.585,119.111 10,115.925 10,112L10,16C10,12.075 13.585,8.889 18,8.889C18,8.889 238,8.889 238,8.889C242.415,8.889 246,12.075 246,16Z" style="fill:rgb(176,28,0);" />
    </g>
    <g transform="matrix(1,0,0,1,70.1836,43.7934)">
        <g transform="matrix(233.333,0,0,233.333,22.1164,163.54)">
            <path d="M0.218,-0.507C0.218,-0.452 0.216,-0.401 0.212,-0.355C0.208,-0.309 0.203,-0.263 0.197,-0.216L0.111,-0.216C0.104,-0.263 0.099,-0.309 0.095,-0.356C0.091,-0.402 0.089,-0.452 0.089,-0.507L0.089,-0.693L0.218,-0.693L0.218,-0.507ZM0.233,-0.066C0.233,-0.043 0.225,-0.024 0.21,-0.009C0.195,0.006 0.176,0.013 0.153,0.013C0.131,0.013 0.112,0.006 0.097,-0.009C0.081,-0.024 0.073,-0.043 0.073,-0.066C0.073,-0.089 0.081,-0.109 0.097,-0.124C0.112,-0.139 0.131,-0.146 0.153,-0.146C0.176,-0.146 0.195,-0.139 0.21,-0.124C0.225,-0.109 0.233,-0.089 0.233,-0.066Z" style="fill:white;fill-rule:nonzero;" />
        </g>
    </g>
</svg>